<?xml version="1.0" standalone="no"?>
<!DOCTYPE svg PUBLIC "-//W3C//DTD SVG 20010904//EN"
 "http://www.w3.org/TR/2001/REC-SVG-20010904/DTD/svg10.dtd">
<svg version="1.0" xmlns="http://www.w3.org/2000/svg"
 width="186.000000pt" height="186.000000pt" viewBox="0 0 186.000000 186.000000"
 preserveAspectRatio="xMidYMid meet">
<metadata>
Created by potrace 1.10, written by Peter Selinger 2001-2011
</metadata>
<g transform="translate(0.000000,186.000000) scale(0.100000,-0.100000)"
fill="#000000" stroke="none">
<path d="M295 1552 c-105 -38 -162 -127 -153 -237 6 -72 30 -104 149 -199 55
-44 94 -83 88 -86 -17 -11 -15 -410 3 -422 8 -6 -18 -8 -73 -6 -70 4 -92 9
-120 28 -95 65 -121 155 -79 270 25 68 25 67 -2 44 -20 -18 -20 -17 2 14 26
35 32 40 24 17 -4 -8 -1 -15 5 -15 6 0 11 9 11 20 0 11 -6 20 -13 20 -21 0
-54 -52 -77 -121 -25 -72 -21 -127 12 -194 53 -105 121 -142 290 -154 9 -1
-16 -90 -35 -126 -42 -77 -82 -100 -174 -100 -62 1 -73 -2 -73 -16 0 -21 28
-29 109 -29 103 0 157 26 221 106 18 23 53 126 54 163 1 17 8 27 19 29 19 4
39 18 81 57 86 79 108 209 54 322 -32 68 -32 69 -17 55 7 -7 20 -30 29 -51 8
-21 58 -85 110 -141 52 -57 94 -109 94 -116 -1 -8 -2 -18 -3 -24 0 -5 -8 -7
-16 -4 -8 4 -15 1 -15 -4 0 -6 9 -9 21 -7 18 4 20 0 16 -20 -3 -20 -2 -23 9
-14 17 14 19 -2 3 -18 -7 -7 -21 -8 -41 -2 -17 4 -35 6 -39 3 -5 -3 -9 15 -9
40 0 39 3 46 20 47 33 2 38 4 47 12 4 5 -10 7 -32 5 l-40 -3 0 -60 0 -60 34
-3 c49 -5 81 5 81 27 0 10 -3 21 -7 24 -12 13 -8 67 5 72 8 3 14 5 15 5 1 0 0
-29 -1 -65 -4 -64 -3 -65 22 -65 25 0 26 2 26 65 0 56 2 64 14 53 9 -8 11 -20
6 -33 -8 -22 2 -59 19 -70 6 -3 9 -11 5 -16 -10 -17 88 -97 171 -139 44 -22
107 -45 140 -51 59 -11 163 -8 185 6 21 13 -8 31 -52 33 -75 5 -175 49 -260
114 l-37 29 33 32 c25 26 33 41 32 68 -1 34 -2 34 -46 34 -42 0 -45 -2 -50
-30 -6 -28 -7 -29 -14 -7 -10 29 -42 45 -77 38 -19 -4 -29 -1 -29 7 -1 6 -33
47 -73 89 -40 42 -119 127 -177 188 -58 61 -106 115 -108 121 -2 5 15 27 37
48 23 22 41 44 41 49 0 5 9 17 20 27 12 10 19 24 16 31 -3 8 1 11 10 7 7 -3
14 0 14 6 0 6 -8 11 -17 11 -15 0 -14 2 3 14 16 13 17 17 5 28 -12 11 -13 10
-8 -4 7 -19 -8 -25 -18 -7 -7 11 35 63 43 54 3 -3 11 0 19 7 10 8 17 8 24 1 8
-8 7 -13 -2 -18 -8 -6 -10 -4 -4 6 5 8 4 11 -1 6 -5 -5 -9 -15 -9 -23 0 -7 -4
-14 -10 -14 -5 0 -10 5 -10 10 0 6 -3 10 -7 10 -5 0 -11 0 -15 0 -3 0 1 -8 10
-18 13 -14 14 -21 5 -30 -6 -6 -9 -15 -5 -18 7 -7 21 6 58 56 15 19 54 63 87
96 49 50 70 64 112 74 89 21 56 35 -95 38 -102 2 -140 -1 -146 -10 -5 -8 2
-16 22 -25 16 -6 29 -16 29 -21 0 -9 -36 -58 -177 -236 l-83 -104 15 -33 c8
-19 14 -30 15 -25 0 6 6 2 13 -8 8 -10 12 -30 11 -45 -4 -25 -3 -25 4 -2 7 22
8 22 22 6 8 -9 15 -24 16 -32 3 -20 64 -83 78 -80 6 1 10 -4 8 -11 -1 -6 4
-11 10 -10 8 2 12 -7 11 -22 -1 -15 0 -18 3 -7 5 14 9 16 20 6 7 -6 11 -16 7
-23 -3 -6 -2 -8 2 -3 9 8 65 -40 65 -57 0 -5 -12 1 -27 15 -15 13 -22 17 -15
8 6 -9 8 -20 4 -24 -4 -5 -2 -5 4 -2 6 4 19 -2 29 -13 10 -11 21 -17 25 -15 4
2 15 -4 25 -15 11 -13 14 -20 6 -20 -7 0 -9 -5 -5 -11 5 -8 8 -8 13 0 5 8 13
5 26 -9 10 -11 15 -23 12 -27 -4 -3 -7 -1 -7 6 0 9 -15 12 -49 10 -51 -3 -86
14 -74 35 3 6 3 8 -2 4 -12 -11 -35 11 -29 27 3 7 1 16 -5 20 -7 4 -8 -1 -4
-12 6 -17 5 -16 -16 1 -12 11 -20 25 -17 32 2 6 -11 26 -29 44 -19 18 -32 36
-30 40 3 4 -5 7 -18 6 -14 -1 -23 6 -25 19 -3 16 -1 17 7 5 16 -23 13 -3 -4
30 -9 17 -20 30 -26 30 -6 0 -7 5 -3 12 4 6 3 8 -3 5 -6 -4 -18 2 -28 13 -10
11 -21 17 -26 14 -5 -3 -23 8 -41 24 -18 16 -46 41 -63 56 -16 14 -23 25 -15
24 12 -3 16 15 18 102 2 58 0 116 -3 129 -5 21 -7 22 -23 8 -9 -8 -30 -17 -46
-19 l-29 -3 -1 -81 -1 -82 -26 18 c-14 10 -44 37 -67 59 -39 38 -42 45 -42 96
0 30 3 55 8 55 4 0 12 10 17 23 6 12 20 26 33 32 12 5 22 13 22 17 0 5 27 8
59 8 54 0 63 -3 97 -35 52 -50 64 -46 64 19 0 30 -4 57 -9 60 -14 9 -204 16
-226 8z m204 -19 c3 -3 0 -8 -7 -10 -7 -3 -19 -11 -26 -19 -13 -12 -15 -11
-21 5 -11 35 -145 40 -145 6 0 -7 -11 -20 -25 -29 -53 -35 -74 -130 -42 -191
8 -17 39 -48 67 -70 133 -103 151 -120 147 -137 -3 -10 -1 -16 3 -13 5 3 11 1
15 -5 3 -5 11 -10 18 -10 6 0 2 7 -9 15 -10 8 -14 15 -8 15 6 0 21 -11 35 -26
21 -22 21 -24 4 -18 -21 8 -21 6 9 -16 13 -10 17 -10 12 -2 -4 6 -4 12 0 12 9
0 52 -49 66 -75 11 -20 11 -20 -12 0 l-23 20 14 -22 c7 -12 20 -24 30 -26 23
-6 44 -121 31 -168 -6 -19 -11 -26 -11 -17 -2 28 -16 28 -18 0 -5 -65 -9 -79
-31 -106 -30 -39 -81 -76 -97 -70 -7 3 -15 -2 -19 -11 -3 -9 -14 -15 -24 -13
-11 2 -26 -3 -34 -9 -12 -10 -19 -9 -37 8 -17 16 -32 20 -61 17 -21 -2 -36 0
-34 4 3 5 -7 8 -21 8 -17 0 -24 -4 -19 -12 4 -7 3 -8 -5 -4 -6 4 -9 12 -6 17
4 5 0 9 -7 10 -7 1 -22 2 -33 3 -10 0 -25 11 -31 24 -6 13 -15 23 -20 24 -5 0
-8 5 -6 10 1 6 -3 18 -9 27 -7 9 1 2 18 -16 63 -65 159 -93 252 -72 34 7 46 7
54 -3 6 -9 7 -8 3 4 -4 13 3 22 24 33 17 9 31 13 31 10 1 -3 2 -9 3 -14 3 -24
13 -18 11 6 -1 16 9 48 22 73 12 25 23 58 22 75 -1 28 -1 28 -10 -8 -16 -66
-48 -112 -99 -142 -12 -6 -13 -5 -3 6 9 9 13 60 13 179 0 164 0 167 -25 190
-13 12 -22 26 -20 30 3 4 -5 16 -16 26 -11 10 -17 24 -15 31 3 7 1 13 -4 13
-6 0 -10 -5 -10 -11 0 -6 -27 11 -60 37 -64 50 -68 58 -46 83 13 14 11 21 -15
55 -16 23 -29 33 -29 24 0 -9 7 -19 16 -22 9 -4 14 -13 10 -22 -3 -8 -2 -12 3
-9 20 12 19 -13 -1 -31 -12 -11 -19 -14 -16 -9 4 6 0 21 -8 35 l-15 25 7 -24
c6 -24 6 -24 -14 -5 -21 19 -42 65 -42 87 1 7 7 -3 15 -20 15 -36 20 -39 31
-21 4 6 3 8 -3 5 -12 -8 -23 14 -23 44 0 13 4 18 12 13 6 -4 8 -3 5 3 -6 10
10 63 32 102 7 13 8 21 3 17 -17 -10 -25 14 -10 31 7 9 36 27 63 40 45 22 59
24 134 18 47 -3 87 -8 90 -12z m-109 -14 c0 -5 -9 -9 -19 -9 -11 0 -22 4 -25
9 -3 5 6 9 19 9 14 0 25 -4 25 -9z m127 -51 c-2 -13 -4 -3 -4 22 0 25 2 35 4
23 2 -13 2 -33 0 -45z m478 55 c-16 -3 -35 -9 -41 -14 -6 -5 -18 -8 -25 -6 -8
2 -10 2 -6 -1 5 -2 -4 -17 -19 -33 -15 -15 -32 -26 -37 -22 -6 3 -7 1 -4 -4
13 -21 -28 -56 -66 -58 -25 0 -33 3 -26 10 5 5 19 11 30 11 44 3 49 4 49 14 0
5 -7 7 -15 4 -11 -5 -14 -2 -8 12 4 14 0 12 -15 -6 -27 -32 -29 -17 -2 17 11
14 20 33 20 42 0 13 2 13 9 3 7 -11 9 -10 14 3 4 9 3 13 -3 10 -6 -3 -10 -1
-10 5 0 6 -4 9 -8 6 -4 -2 -14 -1 -22 5 -10 5 27 8 100 7 63 0 102 -3 85 -5z
m-495 -40 c0 -25 -1 -26 -16 -11 -9 9 -13 21 -10 27 13 20 26 11 26 -16z
m-290 -44 c0 -4 -4 -11 -10 -14 -5 -3 -10 -1 -10 5 0 6 -5 8 -12 4 -6 -4 -8
-3 -5 3 7 11 37 13 37 2z m-25 -29 c3 -6 3 -20 0 -31 -6 -17 -9 -19 -16 -8
-12 19 -11 49 0 49 6 0 13 -5 16 -10z m273 -152 l-2 -113 -6 105 c-6 104 -12
89 -11 -25 2 -76 -8 -94 -35 -63 -16 19 -16 20 -1 9 9 -8 20 -11 23 -9 3 3 -9
16 -25 28 -23 16 -31 29 -31 51 0 18 4 28 10 24 6 -4 8 -10 5 -15 -3 -5 0 -12
6 -16 8 -4 9 -3 5 4 -4 7 -3 12 1 12 5 0 7 19 5 41 -3 27 -1 39 6 35 6 -3 13
-2 16 3 4 5 -6 12 -21 14 -27 4 -27 4 4 6 17 0 35 6 38 11 13 21 15 6 13 -102z
m256 14 c-6 -32 -18 -47 -33 -38 -7 5 -7 13 1 26 7 10 16 16 22 13 5 -4 6 -1
1 7 -7 11 -12 8 -24 -9 -8 -13 -16 -33 -18 -45 -2 -17 -1 -18 7 -6 6 9 10 11
10 3 0 -7 -20 -35 -45 -63 -38 -42 -46 -47 -54 -33 -12 22 28 80 42 61 6 -9 7
-7 3 5 -4 13 7 34 35 67 45 53 61 56 53 12z m-124 -262 c0 -5 -2 -10 -4 -10
-3 0 -8 5 -11 10 -3 6 -1 10 4 10 6 0 11 -4 11 -10z m112 -34 c10 -19 10 -20
-6 -7 -9 8 -22 24 -28 35 -10 19 -10 20 6 7 9 -8 22 -24 28 -35z m-278 -24
c-6 -57 -6 -248 1 -276 5 -19 4 -31 -6 -37 -21 -13 -33 -11 -21 4 5 6 7 20 3
29 -3 9 -4 76 -1 147 3 72 1 131 -4 131 -5 0 -3 6 3 14 8 10 9 16 1 21 -5 3
-10 11 -10 17 0 6 8 4 19 -6 11 -10 17 -27 15 -44z m226 -3 c0 -6 -4 -7 -10
-4 -5 3 -10 11 -10 16 0 6 5 7 10 4 6 -3 10 -11 10 -16z m-556 -54 c-4 -8 -11
-15 -16 -15 -6 0 -5 6 2 15 7 8 14 15 16 15 2 0 1 -7 -2 -15z m651 -74 c-3 -2
-6 -2 -7 0 -2 2 -19 22 -38 44 l-35 40 42 -39 c24 -22 40 -42 38 -45z m-682
-21 c-3 -11 -7 -20 -9 -20 -2 0 -4 9 -4 20 0 11 4 20 9 20 5 0 7 -9 4 -20z
m817 -10 c0 -5 -2 -10 -4 -10 -3 0 -8 5 -11 10 -3 6 -1 10 4 10 6 0 11 -4 11
-10z m-799 -77 c-12 -20 -14 -14 -5 12 4 9 9 14 11 11 3 -2 0 -13 -6 -23z
m531 -15 c-7 -7 -12 -8 -12 -2 0 14 12 26 19 19 2 -3 -1 -11 -7 -17z m308 -18
c0 -5 -7 -10 -15 -10 -8 0 -15 5 -15 10 0 6 7 10 15 10 8 0 15 -4 15 -10z
m142 -26 c14 -30 -5 -70 -35 -78 -23 -6 -50 11 -41 25 3 5 2 9 -3 8 -22 -4
-23 4 -3 34 l22 32 -22 -25 c-20 -22 -22 -23 -19 -5 5 24 44 45 71 37 11 -2
25 -15 30 -28z m116 14 c-2 -6 -10 -14 -18 -16 -8 -3 -10 0 -5 8 5 9 4 11 -3
6 -17 -10 -15 -26 3 -26 20 0 19 -6 -3 -28 -19 -19 -52 -36 -64 -34 -5 1 -8
-5 -8 -14 0 -8 5 -12 11 -8 6 3 23 -5 37 -19 15 -13 39 -32 55 -42 23 -15 25
-20 15 -34 -11 -14 -11 -14 3 -3 13 10 26 8 70 -12 30 -13 63 -27 74 -30 16
-6 17 -9 5 -16 -13 -8 -13 -10 -1 -10 8 0 12 -2 10 -5 -3 -2 -15 -2 -28 2 -17
4 -20 8 -9 15 9 7 7 8 -9 5 -13 -3 -24 1 -27 9 -4 10 -11 11 -31 4 -34 -13
-35 -13 -35 6 0 11 6 15 20 11 11 -3 18 -1 14 4 -9 15 -32 10 -43 -8 -7 -11
-14 -14 -18 -8 -5 6 -15 11 -23 13 -8 2 -24 11 -34 20 -15 13 -18 14 -12 2 4
-8 0 -6 -9 5 -9 11 -19 19 -23 18 -4 -2 -7 1 -7 7 0 5 -7 15 -15 22 -12 11
-12 11 -1 -4 7 -10 9 -18 4 -18 -16 0 -44 36 -36 45 5 4 3 5 -4 1 -6 -3 -14
-2 -18 4 -3 5 10 16 30 24 20 9 34 20 31 25 -4 5 -2 12 3 15 5 4 12 -2 14 -11
3 -10 5 6 6 35 l1 52 41 0 c27 0 39 -4 37 -12z m-276 -38 c3 -17 1 -33 -4 -36
-4 -3 -8 11 -8 30 0 44 6 47 12 6z m-565 -76 c-3 -3 -12 -4 -19 -1 -8 3 -5 6
6 6 11 1 17 -2 13 -5z m112 -46 c0 -13 -3 -17 -6 -10 -6 15 -33 16 -33 1 0 -5
4 -8 8 -5 5 3 8 -10 8 -28 -1 -22 -5 -32 -13 -29 -7 3 -13 -2 -13 -11 0 -9 5
-16 11 -16 5 0 7 -5 4 -10 -4 -6 -11 -8 -16 -5 -5 4 -10 1 -10 -4 -1 -6 -3
-15 -4 -21 -1 -5 -3 -14 -4 -20 0 -5 -6 -10 -12 -10 -5 0 -7 5 -3 12 4 7 3 8
-5 4 -6 -4 -9 -11 -6 -16 3 -4 -3 -14 -12 -21 -14 -12 -16 -12 -9 1 4 9 2 8
-7 -2 -16 -20 -93 -55 -82 -38 5 8 -4 9 -28 5 -54 -10 -106 -10 -116 1 -6 5
17 9 63 9 65 0 77 3 111 29 21 16 45 42 54 57 9 16 23 28 31 26 8 -1 15 5 15
13 0 8 7 21 15 28 8 8 9 11 3 7 -7 -3 -13 -1 -13 4 0 6 4 11 8 11 5 0 9 7 9
15 0 10 -6 14 -15 10 -8 -3 -12 0 -10 7 3 7 20 16 39 19 19 4 35 7 37 8 1 0 2
-9 1 -21z m831 -98 c0 -5 -8 -10 -17 -10 -15 0 -16 2 -3 10 19 12 20 12 20 0z
m140 -11 l25 -9 -27 4 c-15 2 -29 -2 -31 -7 -2 -6 -6 -3 -10 6 -7 19 3 20 43
6z"/>
<path d="M244 1495 c-16 -14 -25 -25 -20 -25 4 0 21 11 38 25 16 14 25 25 20
25 -5 0 -22 -11 -38 -25z"/>
<path d="M195 1320 c-3 -5 -1 -10 4 -10 6 0 11 5 11 10 0 6 -2 10 -4 10 -3 0
-8 -4 -11 -10z"/>
<path d="M280 1226 c0 -2 8 -10 18 -17 15 -13 16 -12 3 4 -13 16 -21 21 -21
13z"/>
<path d="M276 1181 c-3 -5 1 -14 8 -20 12 -10 13 -8 9 8 -6 23 -9 25 -17 12z"/>
<path d="M319 1177 c8 -10 22 -22 32 -28 15 -8 17 -6 13 6 -4 9 -9 13 -12 10
-3 -3 -15 3 -26 12 -20 17 -20 17 -7 0z"/>
<path d="M433 1003 c14 -15 30 -23 34 -19 4 4 0 12 -10 17 -9 6 -15 14 -13 18
3 4 -5 8 -16 8 -20 2 -20 1 5 -24z"/>
<path d="M500 980 c0 -5 -7 -7 -15 -4 -20 8 -19 -5 3 -25 23 -21 52 -85 53
-119 l1 -27 8 30 c7 28 8 27 9 -12 1 -27 6 -43 14 -43 8 0 9 -3 1 -8 -14 -9
-24 -61 -13 -68 5 -3 9 8 9 25 0 16 5 33 10 36 6 4 7 11 4 17 -4 6 -7 30 -8
54 -1 38 -16 77 -16 43 -1 -10 -5 -8 -15 5 -19 25 -19 37 0 30 8 -4 15 -1 15
6 0 6 -4 8 -10 5 -5 -3 -10 0 -10 7 0 10 -3 9 -11 -2 -9 -12 -10 -11 -6 7 3
15 1 20 -9 16 -17 -6 -18 9 -2 25 9 9 9 12 0 12 -7 0 -12 -4 -12 -10z"/>
<path d="M597 903 c-2 -5 2 -19 9 -33 10 -18 14 -20 14 -8 0 9 -5 20 -10 23
-6 4 -8 11 -5 16 4 5 4 9 1 9 -3 0 -7 -3 -9 -7z"/>
<path d="M619 828 c-6 -21 -5 -38 2 -38 5 0 9 9 9 20 0 16 -7 28 -11 18z"/>
<path d="M532 672 c-16 -34 -9 -39 12 -8 8 14 12 27 8 30 -4 2 -13 -7 -20 -22z"/>
<path d="M455 600 c-3 -6 1 -7 9 -4 18 7 21 14 7 14 -6 0 -13 -4 -16 -10z"/>
<path d="M380 570 c0 -5 5 -10 11 -10 5 0 7 5 4 10 -3 6 -8 10 -11 10 -2 0 -4
-4 -4 -10z"/>
<path d="M838 1463 c7 -3 16 -2 19 1 4 3 -2 6 -13 5 -11 0 -14 -3 -6 -6z"/>
<path d="M395 1210 c3 -5 11 -10 16 -10 6 0 7 5 4 10 -3 6 -11 10 -16 10 -6 0
-7 -4 -4 -10z"/>
<path d="M591 1156 c-8 -10 -9 -16 -1 -21 5 -3 10 1 10 10 0 9 5 13 10 10 6
-3 10 -1 10 4 0 15 -15 14 -29 -3z"/>
<path d="M994 639 c-7 -12 15 -31 28 -23 4 3 8 12 8 20 0 17 -26 19 -36 3z"/>
<path d="M1040 641 c0 -6 4 -12 8 -15 5 -3 9 1 9 9 0 8 -4 15 -9 15 -4 0 -8
-4 -8 -9z"/>
<path d="M1125 510 c10 -11 20 -20 23 -20 3 0 -3 9 -13 20 -10 11 -20 20 -23
20 -3 0 3 -9 13 -20z"/>
<path d="M340 375 c0 -8 2 -15 4 -15 2 0 6 7 10 15 3 8 1 15 -4 15 -6 0 -10
-7 -10 -15z"/>
<path d="M315 349 c-4 -6 -5 -12 -2 -15 2 -3 7 2 10 11 7 17 1 20 -8 4z"/>
<path d="M276 311 c-4 -5 1 -8 9 -7 21 3 31 16 12 16 -9 0 -18 -4 -21 -9z"/>
<path d="M532 1120 c-18 -29 -15 -46 13 -64 16 -11 25 -12 25 -5 0 8 6 7 18
-2 15 -13 16 -12 3 3 -7 10 -17 16 -21 13 -4 -2 -16 2 -26 10 -18 13 -18 15
-2 29 10 9 13 11 8 4 -14 -17 -12 -28 3 -28 8 0 13 9 11 23 -1 12 -3 25 -3 30
-2 13 -16 7 -29 -13z"/>
<path d="M1640 682 c0 -34 18 -59 45 -64 14 -2 21 -12 23 -36 2 -17 8 -32 14
-32 6 0 8 11 6 25 -3 13 -1 22 3 19 5 -3 9 0 9 6 0 6 6 10 13 8 6 -1 22 2 35
6 18 6 22 15 22 47 0 40 -5 44 -47 33 -34 -9 -28 -21 8 -16 29 4 30 3 27 -24
-2 -23 -9 -30 -30 -32 -24 -3 -28 0 -28 21 0 31 -39 67 -73 67 -23 0 -27 -4
-27 -28z m65 -2 c10 -11 13 -20 7 -20 -6 0 -12 6 -15 13 -2 6 -8 9 -11 5 -4
-3 2 -16 13 -27 12 -12 21 -16 21 -9 0 6 3 9 6 5 3 -3 1 -14 -5 -24 -6 -10
-11 -12 -11 -5 0 6 -8 12 -18 12 -25 0 -42 19 -42 47 0 29 30 31 55 3z"/>
<path d="M1204 685 c-10 -24 3 -97 18 -106 17 -11 59 -11 78 1 9 6 14 27 15
62 0 50 -1 53 -25 53 -21 0 -26 -6 -31 -35 l-6 -35 -4 35 c-4 38 -34 54 -45
25z m18 -30 c-2 -14 -6 -25 -8 -25 -2 0 -4 11 -4 25 0 14 4 25 9 25 4 0 6 -11
3 -25z m63 -3 c-1 -16 -5 -35 -10 -43 -8 -12 -6 -12 8 0 9 7 18 28 18 45 2 29
2 29 6 4 6 -40 -13 -68 -45 -68 -24 0 -28 4 -29 33 -1 17 1 24 4 15 8 -31 33
-21 33 12 0 17 4 30 8 30 5 0 8 -13 7 -28z"/>
<path d="M1334 686 c-3 -7 -4 -35 -2 -62 l3 -49 44 -3 c24 -2 47 0 51 5 4 4 5
34 3 66 l-5 57 -45 0 c-28 0 -46 -5 -49 -14z m86 -11 c0 -3 -10 -10 -22 -15
l-23 -9 23 -7 c12 -3 22 -10 22 -15 0 -5 -10 -10 -22 -10 l-23 -2 23 -4 c29
-6 28 -23 -2 -23 -28 0 -36 15 -29 53 3 16 1 27 -6 27 -6 0 -9 -15 -7 -40 2
-22 0 -40 -5 -40 -5 0 -9 20 -9 45 l0 45 40 0 c22 0 40 -2 40 -5z"/>
<path d="M1448 684 c-2 -9 -1 -39 0 -65 l4 -49 44 0 c55 0 70 23 33 53 -13 11
-23 24 -21 29 1 5 -2 18 -8 28 -13 24 -47 26 -52 4z m40 -38 c2 -18 11 -30 23
-33 33 -9 21 -23 -18 -22 -21 1 -31 3 -22 6 11 3 15 12 11 29 -3 19 -7 22 -13
12 -6 -9 -9 -4 -9 15 0 37 24 31 28 -7z"/>
<path d="M770 655 c0 -8 4 -15 8 -15 5 0 9 7 9 15 0 8 -4 15 -9 15 -4 0 -8 -7
-8 -15z"/>
<path d="M800 609 c0 -5 5 -7 10 -4 6 3 10 8 10 11 0 2 -4 4 -10 4 -5 0 -10
-5 -10 -11z"/>
</g>
</svg>
