<?xml version="1.0" standalone="no"?>
<!DOCTYPE svg PUBLIC "-//W3C//DTD SVG 20010904//EN"
 "http://www.w3.org/TR/2001/REC-SVG-20010904/DTD/svg10.dtd">
<svg version="1.0" xmlns="http://www.w3.org/2000/svg"
 width="499.000000pt" height="499.000000pt" viewBox="0 0 499.000000 499.000000"
 preserveAspectRatio="xMidYMid meet">

<g transform="translate(0.000000,499.000000) scale(0.100000,-0.100000)"
fill="#1D5D1F" stroke="none">
<path d="M865 4250 c-76 -11 -183 -50 -238 -89 -275 -191 -340 -600 -133 -836
24 -28 103 -97 176 -155 74 -58 161 -128 194 -155 34 -28 121 -97 194 -154
249 -194 328 -284 394 -451 42 -106 52 -192 34 -291 -37 -209 -125 -344 -286
-439 -109 -64 -176 -82 -330 -88 -115 -4 -149 -1 -218 16 -238 60 -426 271
-453 507 -21 190 20 357 129 529 18 28 32 56 32 63 0 51 -93 -50 -154 -167
-127 -244 -123 -482 12 -738 31 -58 154 -179 223 -220 31 -18 101 -49 155 -69
l99 -37 205 0 c198 0 208 1 290 28 153 51 242 107 341 214 104 111 162 233
189 392 33 194 -37 441 -176 626 -71 94 -125 140 -602 518 -144 115 -276 225
-293 245 -16 20 -42 61 -57 91 -24 49 -27 66 -27 160 0 100 2 109 34 175 82
166 238 247 434 225 120 -14 233 -74 284 -151 22 -34 31 -40 56 -37 l30 3 -2
119 c-1 66 -4 123 -7 128 -3 4 -36 8 -74 8 -38 0 -99 6 -137 14 -90 19 -243
27 -318 16z"/>
<path d="M2460 4210 c-230 -3 -360 -8 -335 -13 22 -4 51 -14 65 -21 35 -19 65
-76 57 -108 -7 -26 -97 -142 -652 -841 -91 -115 -171 -216 -177 -226 -9 -15 5
-33 89 -117 117 -116 182 -209 228 -325 32 -78 45 -95 177 -238 277 -299 361
-386 390 -405 26 -17 30 -17 41 -3 15 19 19 20 140 18 l97 -1 0 -35 c0 -42 11
-45 35 -9 16 25 16 26 -31 77 -27 29 -51 54 -54 57 -7 7 -134 142 -290 310
-271 291 -380 408 -507 544 -73 77 -133 144 -133 147 0 3 107 130 238 281 130
151 322 373 426 494 188 219 270 299 336 334 56 29 168 60 216 60 41 0 60 13
32 21 -7 2 -182 2 -388 -1z"/>
<path d="M1184 3737 c-36 -25 -52 -30 -115 -31 l-74 -1 -3 -189 c-2 -185 -2
-190 20 -213 36 -39 208 -176 214 -171 2 3 3 146 2 319 l-3 315 -41 -29z"/>
<path d="M995 2249 c2 -309 6 -563 9 -566 9 -9 102 27 150 57 l46 30 0 439 0
440 -46 38 c-26 21 -69 57 -97 81 -28 23 -54 42 -59 42 -4 0 -6 -252 -3 -561z"/>
<path d="M4504 1899 c-5 -8 3 -83 12 -114 10 -34 46 -65 73 -64 20 1 22 2 7 6
-11 3 -27 12 -35 21 -15 14 -15 15 0 10 11 -4 25 3 38 18 21 24 21 44 0 44 -6
0 -7 -4 -4 -10 3 -5 1 -10 -4 -10 -6 0 -11 7 -11 16 0 21 -22 42 -39 36 -10
-3 -12 0 -8 11 4 12 2 14 -10 10 -11 -5 -14 -3 -9 6 5 7 18 10 31 7 13 -3 26
-2 29 3 3 5 -10 11 -30 13 -19 2 -37 1 -40 -3z m23 -81 c-3 -8 -6 -5 -6 6 -1
11 2 17 5 13 3 -3 4 -12 1 -19z m63 -43 c0 -11 -34 5 -42 19 -9 17 -9 17 16 1
14 -10 26 -19 26 -20z"/>
<path d="M4628 1884 c17 -9 32 -21 32 -26 0 -5 9 -21 20 -35 24 -30 26 -23 5
17 -17 32 -52 60 -75 60 -8 0 0 -8 18 -16z"/>
<path d="M2108 1873 l-48 -4 0 -150 0 -151 109 4 c100 3 112 5 135 27 33 31
36 85 6 103 -24 15 -26 41 -5 58 25 21 18 57 -17 83 -35 26 -97 36 -180 30z
m102 -93 c0 -13 -7 -20 -20 -20 -19 0 -27 20 -13 33 13 14 33 6 33 -13z m6
-101 c10 -17 -23 -46 -37 -32 -7 7 -9 19 -6 27 7 18 33 21 43 5z"/>
<path d="M2674 1851 c-58 -34 -79 -72 -78 -139 1 -52 26 -88 80 -119 41 -24
105 -30 146 -14 36 14 87 70 97 107 20 71 -17 140 -94 175 -56 26 -92 23 -151
-10z m116 -91 c24 -24 25 -47 3 -72 -29 -32 -83 -12 -83 31 0 22 32 61 50 61
6 0 19 -9 30 -20z"/>
<path d="M2410 1720 l0 -150 50 0 50 0 0 150 0 150 -50 0 -50 0 0 -150z"/>
<path d="M3000 1719 l0 -150 53 3 52 3 0 40 0 40 48 3 48 3 -3 42 c-3 42 -3
42 -48 47 -62 7 -52 24 15 28 l55 3 0 44 0 45 -110 0 -110 0 0 -151z"/>
<path d="M3291 1783 c2 -125 7 -142 57 -180 36 -27 53 -33 92 -33 41 0 55 5
84 31 44 38 56 79 56 187 l0 82 -55 0 -54 0 -3 -92 -3 -93 -28 -3 c-16 -2 -29
2 -32 10 -4 11 -13 114 -15 166 0 8 -17 12 -50 12 l-50 0 1 -87z"/>
<path d="M3666 1722 l2 -147 113 0 114 0 0 40 0 40 -67 3 c-38 2 -68 7 -68 12
0 4 28 12 63 17 55 7 62 11 63 31 2 28 -23 42 -75 42 -30 0 -41 4 -41 15 0 14
10 15 60 9 l60 -7 0 47 0 46 -112 0 -113 0 1 -148z"/>
<path d="M3974 1854 c3 -9 6 -76 6 -150 l0 -135 108 3 107 3 0 45 0 45 -55 5
-55 5 -3 98 -3 97 -55 0 c-47 0 -55 -3 -50 -16z"/>
<path d="M4921 1863 c0 -4 4 -17 9 -28 8 -19 9 -19 9 2 1 12 -3 25 -9 28 -5 3
-10 3 -9 -2z"/>
<path d="M4893 1825 c22 -22 32 -74 17 -88 -10 -9 -12 -8 -7 6 4 9 2 17 -3 17
-5 0 -7 9 -5 20 5 26 -36 54 -64 45 -11 -3 -31 -21 -43 -38 l-22 -32 37 33
c40 34 63 42 53 17 -3 -8 -1 -15 4 -15 6 0 10 -5 10 -11 0 -5 -4 -7 -10 -4
-15 9 -54 -22 -90 -73 -19 -26 -25 -39 -14 -29 24 20 45 22 63 5 11 -11 11 -9
1 11 -12 23 -11 24 19 18 20 -4 30 -3 26 3 -3 6 1 7 9 4 9 -3 13 -10 10 -15
-3 -5 -1 -9 5 -9 6 0 16 10 22 23 13 23 31 102 21 92 -3 -2 -11 4 -19 15 -8
11 -19 20 -24 20 -6 0 -4 -7 4 -15z m-33 -75 c0 -19 -11 -26 -23 -14 -8 8 3
34 14 34 5 0 9 -9 9 -20z"/>
<path d="M4637 1768 c-15 -39 -16 -48 -6 -48 13 0 22 24 16 47 -4 17 -4 17
-10 1z"/>
<path d="M4714 1626 c-3 -8 -4 -25 -2 -38 3 -17 5 -13 9 15 5 38 2 47 -7 23z"/>
<path d="M2865 1534 c-53 -25 -133 -32 -179 -14 -23 8 -25 8 -15 -8 20 -30
205 -181 306 -248 130 -87 231 -137 372 -184 149 -50 263 -64 456 -57 155 6
205 16 205 41 0 10 -19 16 -67 20 -123 12 -215 28 -272 46 -213 69 -358 150
-611 345 -33 25 -55 35 -82 35 -32 0 -39 4 -44 25 -7 30 -6 30 -69 -1z"/>
<path d="M1170 1419 c-13 -6 -59 -13 -102 -16 -74 -6 -79 -7 -84 -32 -68 -345
-189 -507 -429 -582 -84 -26 -214 -28 -285 -4 -44 15 -54 15 -61 4 -5 -8 -7
-18 -6 -23 5 -17 96 -45 182 -57 282 -40 586 101 713 331 53 95 100 237 116
348 7 45 2 49 -44 31z"/>
</g>
</svg>
